HIERARCHY
ROOT Hips
{
  OFFSET 0.0000 88.1582 0.0000
  CHANNELS 6 Xposition Yposition Zposition Yrotation Xrotation Zrotation
  JOINT Spine
  {
    OFFSET 0.0000 12.4674 0.0000
    CHANNELS 3 Yrotation Xrotation Zrotation
    JOINT Spine1
    {
      OFFSET 0.0000 12.2380 0.0000
      CHANNELS 3 Yrotation Xrotation Zrotation
      JOINT Spine2
      {
        OFFSET 0.0000 11.5142 0.0000
        CHANNELS 3 Yrotation Xrotation Zrotation
        JOINT LeftShoulder
        {
          OFFSET 6.6026 9.6620 0.0000
          CHANNELS 3 Yrotation Xrotation Zrotation
          JOINT LeftArm
          {
            OFFSET 0.0000 12.6234 0.0000
            CHANNELS 3 Yrotation Xrotation Zrotation
            JOINT LeftForeArm
            {
              OFFSET -0.0001 24.4780 0.0000
              CHANNELS 3 Yrotation Xrotation Zrotation
              JOINT LeftHand
              {
                OFFSET 0.0000 26.9540 0.0000
                CHANNELS 3 Yrotation Xrotation Zrotation
                JOINT LeftHandIndex1
                {
                  OFFSET -2.4222 7.6359 0.0974
                  CHANNELS 3 Yrotation Xrotation Zrotation
                  JOINT LeftHandIndex2
                  {
                    OFFSET 0.0000 4.3320 0.0000
                    CHANNELS 3 Yrotation Xrotation Zrotation
                    JOINT LeftHandIndex3
                    {
                      OFFSET 0.0000 2.6652 0.0000
                      CHANNELS 3 Yrotation Xrotation Zrotation
                      End Site
                      {
                        OFFSET 0.0000 1.3566 0.0000
                      }
                    }
                  }
                }
                JOINT LeftHandMiddle1
                {
                  OFFSET -0.5154 7.6951 0.0974
                  CHANNELS 3 Yrotation Xrotation Zrotation
                  JOINT LeftHandMiddle2
                  {
                    OFFSET 0.0000 4.4473 0.0000
                    CHANNELS 3 Yrotation Xrotation Zrotation
                    JOINT LeftHandMiddle3
                    {
                      OFFSET 0.0000 2.9333 0.0000
                      CHANNELS 3 Yrotation Xrotation Zrotation
                      End Site
                      {
                        OFFSET 0.0000 1.4991 0.0000
                      }
                    }
                  }
                }
                JOINT LeftHandPinky1
                {
                  OFFSET 2.9666 6.6373 0.0975
                  CHANNELS 3 Yrotation Xrotation Zrotation
                  JOINT LeftHandPinky2
                  {
                    OFFSET 0.0000 3.3612 0.0000
                    CHANNELS 3 Yrotation Xrotation Zrotation
                    JOINT LeftHandPinky3
                    {
                      OFFSET 0.0000 2.1128 0.0000
                      CHANNELS 3 Yrotation Xrotation Zrotation
                      End Site
                      {
                        OFFSET 0.0000 1.1205 0.0000
                      }
                    }
                  }
                }
                JOINT LeftHandRing1
                {
                  OFFSET 1.3623 7.3832 0.0975
                  CHANNELS 3 Yrotation Xrotation Zrotation
                  JOINT LeftHandRing2
                  {
                    OFFSET 0.0000 4.1539 0.0000
                    CHANNELS 3 Yrotation Xrotation Zrotation
                    JOINT LeftHandRing3
                    {
                      OFFSET 0.0000 2.6790 0.0000
                      CHANNELS 3 Yrotation Xrotation Zrotation
                      End Site
                      {
                        OFFSET 0.0000 1.3500 0.0000
                      }
                    }
                  }
                }
                JOINT LeftHandThumb1
                {
                  OFFSET -2.6352 1.9662 0.0890
                  CHANNELS 3 Yrotation Xrotation Zrotation
                  JOINT LeftHandThumb2
                  {
                    OFFSET 0.0000 3.7470 0.0000
                    CHANNELS 3 Yrotation Xrotation Zrotation
                    JOINT LeftHandThumb3
                    {
                      OFFSET 0.0000 2.8440 0.0000
                      CHANNELS 3 Yrotation Xrotation Zrotation
                      End Site
                      {
                        OFFSET 0.0000 1.7295 0.0000
                      }
                    }
                  }
                }
              }
            }
          }
        }
        JOINT Neck
        {
          OFFSET 0.0000 16.9498 0.0000
          CHANNELS 3 Yrotation Xrotation Zrotation
          JOINT Head
          {
            OFFSET 0.0000 10.3509 0.0000
            CHANNELS 3 Yrotation Xrotation Zrotation
            End Site
            {
              OFFSET 0.0000 8.0220 0.0000
            }
          }
        }
        JOINT RightShoulder
        {
          OFFSET -6.6026 9.6620 0.0000
          CHANNELS 3 Yrotation Xrotation Zrotation
          JOINT RightArm
          {
            OFFSET 0.0000 12.6234 0.0000
            CHANNELS 3 Yrotation Xrotation Zrotation
            JOINT RightForeArm
            {
              OFFSET 0.0000 24.4781 0.0000
              CHANNELS 3 Yrotation Xrotation Zrotation
              JOINT RightHand
              {
                OFFSET -0.0001 26.9540 0.0000
                CHANNELS 3 Yrotation Xrotation Zrotation
                JOINT RightHandIndex1
                {
                  OFFSET 2.4222 7.6360 0.0974
                  CHANNELS 3 Yrotation Xrotation Zrotation
                  JOINT RightHandIndex2
                  {
                    OFFSET 0.0000 4.3321 -0.0001
                    CHANNELS 3 Yrotation Xrotation Zrotation
                    JOINT RightHandIndex3
                    {
                      OFFSET 0.0000 2.6652 0.0000
                      CHANNELS 3 Yrotation Xrotation Zrotation
                      End Site
                      {
                        OFFSET 0.0000 1.3566 0.0000
                      }
                    }
                  }
                }
                JOINT RightHandMiddle1
                {
                  OFFSET 0.5154 7.6952 0.0974
                  CHANNELS 3 Yrotation Xrotation Zrotation
                  JOINT RightHandMiddle2
                  {
                    OFFSET 0.0000 4.4473 -0.0001
                    CHANNELS 3 Yrotation Xrotation Zrotation
                    JOINT RightHandMiddle3
                    {
                      OFFSET 0.0000 2.9333 0.0000
                      CHANNELS 3 Yrotation Xrotation Zrotation
                      End Site
                      {
                        OFFSET 0.0000 1.4991 0.0000
                      }
                    }
                  }
                }
                JOINT RightHandPinky1
                {
                  OFFSET -2.9667 6.6374 0.0974
                  CHANNELS 3 Yrotation Xrotation Zrotation
                  JOINT RightHandPinky2
                  {
                    OFFSET 0.0000 3.3613 -0.0001
                    CHANNELS 3 Yrotation Xrotation Zrotation
                    JOINT RightHandPinky3
                    {
                      OFFSET 0.0000 2.1128 0.0000
                      CHANNELS 3 Yrotation Xrotation Zrotation
                      End Site
                      {
                        OFFSET 0.0000 1.1205 0.0000
                      }
                    }
                  }
                }
                JOINT RightHandRing1
                {
                  OFFSET -1.3624 7.3833 0.0974
                  CHANNELS 3 Yrotation Xrotation Zrotation
                  JOINT RightHandRing2
                  {
                    OFFSET 0.0000 4.1540 -0.0001
                    CHANNELS 3 Yrotation Xrotation Zrotation
                    JOINT RightHandRing3
                    {
                      OFFSET 0.0000 2.6790 0.0000
                      CHANNELS 3 Yrotation Xrotation Zrotation
                      End Site
                      {
                        OFFSET 0.0000 1.3500 0.0000
                      }
                    }
                  }
                }
                JOINT RightHandThumb1
                {
                  OFFSET 2.6352 1.9663 0.0889
                  CHANNELS 3 Yrotation Xrotation Zrotation
                  JOINT RightHandThumb2
                  {
                    OFFSET 0.0000 3.7470 -0.0001
                    CHANNELS 3 Yrotation Xrotation Zrotation
                    JOINT RightHandThumb3
                    {
                      OFFSET 0.0000 2.8440 -0.0001
                      CHANNELS 3 Yrotation Xrotation Zrotation
                      End Site
                      {
                        OFFSET 0.0000 1.7295 0.0000
                      }
                    }
                  }
                }
              }
            }
          }
        }
      }
    }
  }
  JOINT LeftUpLeg
  {
    OFFSET 7.5966 0.0000 0.0000
    CHANNELS 3 Yrotation Xrotation Zrotation
    JOINT LeftLeg
    {
      OFFSET 0.0000 40.5152 0.0000
      CHANNELS 3 Yrotation Xrotation Zrotation
      JOINT LeftFoot
      {
        OFFSET 0.0000 40.6090 0.0000
        CHANNELS 3 Yrotation Xrotation Zrotation
        JOINT LeftToeBase
        {
          OFFSET 0.0000 13.6671 0.0000
          CHANNELS 3 Yrotation Xrotation Zrotation
          End Site
          {
            OFFSET 0.0000 3.5000 0.0000
          }
        }
      }
    }
  }
  JOINT RightUpLeg
  {
    OFFSET -7.5966 0.0000 0.0000
    CHANNELS 3 Yrotation Xrotation Zrotation
    JOINT RightLeg
    {
      OFFSET 0.0000 40.5153 0.0000
      CHANNELS 3 Yrotation Xrotation Zrotation
      JOINT RightFoot
      {
        OFFSET 0.0000 40.6090 0.0000
        CHANNELS 3 Yrotation Xrotation Zrotation
        JOINT RightToeBase
        {
          OFFSET 0.0000 13.6671 0.0000
          CHANNELS 3 Yrotation Xrotation Zrotation
          End Site
          {
            OFFSET 0.0000 3.5000 0.0000
          }
        }
      }
    }
  }
}
MOTION
Frames: 9
Frame Time: 0.033333
-4.7579 87.9715 0.1194 -23.4766 -0.9497 -2.2700 -0.0932 1.0839 -1.7082 -0.0933 1.0843 -1.7087 -0.0936 1.0872 -1.7133 143.5541 81.0604 53.7497 57.5776 56.0457 92.9552 21.2865 25.9056 65.1844 -34.4872 21.9678 34.9951 -15.4854 -6.8380 -15.6503 -0.2617 8.7489 -1.7203 0.0000 5.8345 -0.0009 -14.0175 -8.8236 -20.1916 1.8397 23.6791 4.5728 0.0001 15.8435 0.0000 -16.1745 -8.2048 -23.4416 -1.4993 23.1416 -3.8092 0.0000 15.4709 -0.0006 -14.8952 -8.5510 -21.7778 1.1515 23.0911 2.9338 0.0000 15.4228 -0.0001 32.1455 23.1237 37.4417 6.9121 -26.8029 -20.6992 -0.0831 -3.0835 3.0879 3.2270 7.7686 -1.1406 3.2270 7.7686 -1.1406 119.0741 79.2028 -137.5814 51.5671 61.4577 31.0903 -15.2072 -5.0767 -97.4319 -58.0886 -33.8798 -9.3689 24.0540 45.1914 49.5285 4.7921 72.6631 5.0190 -0.0001 48.8572 0.0002 46.1047 53.3288 64.1735 -134.2501 76.8256 -133.4868 -0.0001 67.0778 -0.0002 95.2119 44.4290 98.6903 -25.0499 59.7181 -28.4226 -0.0001 42.1175 0.0001 76.9288 56.9236 85.4944 -31.7728 70.9775 -33.2308 0.0000 49.6677 -0.0001 -55.2637 28.3029 -38.5928 2.3920 20.8773 17.0996 1.3918 12.4276 12.7307 15.0067 -1.1886 -177.8988 -0.0110 -15.3638 0.0814 -14.6253 75.3762 -7.6456 0.0000 28.1672 0.0000 12.8567 2.1180 -177.2555 -0.0009 -0.3748 -0.0827 -9.5647 69.0642 -1.8141 0.0000 22.9445 -0.0001 
-4.7368 87.9707 0.1128 -23.4744 -0.9554 -2.2777 -0.0858 1.0823 -1.6998 -0.0858 1.0827 -1.7003 -0.0861 1.0856 -1.7049 143.4070 81.0515 53.6028 57.6058 56.1252 92.9933 21.2883 25.9269 65.1843 -34.5062 22.0028 34.8968 -15.4792 -6.8321 -15.6501 -0.2633 8.7600 -1.7284 0.0000 5.8420 -0.0009 -14.0264 -8.8224 -20.1827 1.8359 23.6692 4.5652 0.0001 15.8367 0.0001 -16.1760 -8.2358 -23.4384 -1.5014 23.2188 -3.8026 0.0000 15.5224 -0.0006 -14.8954 -8.5460 -21.7789 1.1616 23.0824 2.9607 0.0000 15.4173 -0.0001 32.1447 23.1061 37.4432 6.9023 -26.7836 -20.6995 -0.0826 -3.0749 3.0792 3.2480 7.8132 -1.1261 3.2480 7.8132 -1.1261 119.0780 79.1324 -137.5750 53.1489 61.2762 32.4124 -15.0701 -4.7528 -97.1019 -58.7190 -33.9673 -8.8928 24.0444 45.2335 49.4707 5.6127 72.8503 5.8720 -0.0001 49.0001 0.0001 46.2992 53.3085 64.3410 -135.1166 76.7992 -134.3496 -0.0001 67.1900 -0.0002 95.1531 44.3294 98.6192 -25.1788 59.9792 -28.4996 -0.0002 42.2941 0.0001 77.1645 56.9013 85.7068 -31.7629 70.8604 -33.2392 0.0000 49.5996 -0.0001 -55.2674 28.2406 -38.7140 2.4015 21.0003 17.1450 1.4041 12.4805 12.7876 15.0139 -1.1959 -177.9046 -0.0116 -15.3724 0.0843 -14.5647 75.3867 -7.5893 0.0000 28.1575 0.0000 12.8554 2.1949 -177.2624 -0.0005 -0.2128 -0.0827 -9.4380 68.9705 -1.6941 0.0000 22.9533 -0.0001 
-4.7154 87.9700 0.1048 -23.4627 -0.9624 -2.2866 -0.0842 1.0810 -1.6935 -0.0842 1.0814 -1.6941 -0.0845 1.0843 -1.6986 143.3425 81.0452 53.5321 57.5794 56.1880 92.9877 21.3001 25.9020 65.1993 -34.5832 22.0500 34.8106 -15.4787 -6.8327 -15.6495 -0.2643 8.7610 -1.7345 0.0000 5.8426 -0.0008 -14.0285 -8.8226 -20.1808 1.8347 23.6654 4.5629 0.0001 15.8341 0.0001 -16.1729 -8.2275 -23.4219 -1.5206 23.2007 -3.8539 0.0000 15.5112 -0.0006 -14.8946 -8.5451 -21.7798 1.1631 23.0806 2.9647 0.0000 15.4162 -0.0002 32.1460 23.1063 37.4450 6.9021 -26.7829 -20.7005 -0.0826 -3.0742 3.0786 3.2660 7.8495 -1.0875 3.2660 7.8495 -1.0875 119.1134 79.0891 -137.5282 54.4156 61.0897 33.4342 -14.8238 -4.7591 -96.6850 -58.6840 -34.3753 -8.7146 24.1191 45.2257 49.5071 6.2381 72.8507 6.5258 0.0000 49.0140 0.0002 46.4808 53.2886 64.5158 -134.9578 76.8939 -134.2019 -0.0001 67.1258 -0.0002 95.2306 44.2357 98.6814 -25.0994 59.9151 -28.4287 -0.0001 42.2430 0.0001 77.3916 56.8512 85.8958 -31.3195 70.6736 -32.8145 0.0000 49.4383 -0.0001 -55.1823 28.2547 -38.8199 2.4808 21.0608 17.4010 1.4274 12.5807 12.8954 14.9886 -1.2098 -177.9077 -0.0116 -15.3944 0.0799 -14.5579 75.3951 -7.5658 0.0000 28.1574 0.0000 12.8455 2.2985 -177.2680 0.0000 0.0001 -0.0827 -9.2922 68.8524 -1.5613 0.0000 22.9613 -0.0001 
-4.6929 87.9690 0.0964 -23.4489 -0.9689 -2.2949 -0.0796 1.0810 -1.6850 -0.0796 1.0814 -1.6855 -0.0798 1.0843 -1.6900 143.3626 81.0411 53.5653 57.5353 56.2128 92.9789 21.2789 25.9070 65.2110 -34.6278 22.0766 34.7414 -15.4792 -6.8347 -15.6493 -0.2648 8.7605 -1.7382 0.0000 5.8423 -0.0009 -14.0289 -8.8231 -20.1800 1.8338 23.6634 4.5611 0.0001 15.8327 0.0001 -16.1684 -8.2131 -23.4051 -1.5404 23.1688 -3.9092 0.0000 15.4907 -0.0006 -14.8940 -8.5451 -21.7803 1.1632 23.0800 2.9650 0.0000 15.4158 -0.0001 32.1459 23.1017 37.4465 6.8998 -26.7782 -20.7011 -0.0825 -3.0720 3.0764 3.2586 7.8727 -1.0635 3.2586 7.8727 -1.0635 119.0735 79.0644 -137.5648 55.3960 60.8182 34.1730 -14.6784 -4.7355 -96.3491 -58.6864 -34.7939 -8.5622 24.2205 45.2378 49.5930 6.3405 72.8500 6.6329 -0.0001 49.0159 0.0001 46.5760 53.3746 64.6030 -134.1767 76.9422 -133.4270 -0.0001 67.0134 -0.0002 95.3846 44.1213 98.8142 -24.8706 59.6943 -28.2327 -0.0002 42.0742 0.0001 77.7195 56.9145 86.1613 -30.7782 70.2824 -32.3217 0.0000 49.1467 -0.0001 -55.1355 28.2734 -38.9243 2.5415 21.0874 17.5930 1.4437 12.6499 12.9700 14.9777 -1.2266 -177.9125 -0.0119 -15.4192 0.0805 -14.5315 75.4033 -7.5420 0.0000 28.1595 0.0000 12.8460 2.2278 -177.2740 -0.0003 -0.1340 -0.0827 -9.2055 68.9101 -1.5124 0.0000 22.9649 -0.0001 
-4.6700 87.9680 0.0885 -23.4385 -0.9744 -2.3009 -0.0763 1.0809 -1.6762 -0.0763 1.0813 -1.6768 -0.0766 1.0842 -1.6813 143.3734 81.0439 53.5958 57.5188 56.2381 92.9913 21.2348 25.9136 65.2083 -34.6558 22.1006 34.6707 -15.4798 -6.8363 -15.6485 -0.2654 8.7598 -1.7425 0.0000 5.8418 -0.0009 -14.0293 -8.8234 -20.1788 1.8328 23.6612 4.5589 0.0001 15.8312 0.0001 -16.1644 -8.1977 -23.3872 -1.5606 23.1357 -3.9655 0.0000 15.4695 -0.0006 -14.8935 -8.5443 -21.7800 1.1629 23.0787 2.9643 0.0000 15.4149 -0.0001 32.1457 23.0968 37.4483 6.8975 -26.7734 -20.7022 -0.0823 -3.0696 3.0739 3.2461 7.8802 -1.0584 3.2461 7.8802 -1.0584 119.1226 79.0552 -137.4898 55.8142 60.6367 34.4311 -14.5307 -4.6582 -96.1589 -58.6031 -34.9635 -8.4967 24.3624 45.2076 49.7428 6.1027 72.7900 6.3864 0.0000 48.9698 0.0002 46.6545 53.4618 64.6879 -132.9336 76.9436 -132.1861 -0.0001 66.8691 -0.0002 95.6308 43.9908 99.0530 -24.5516 59.2080 -28.0028 -0.0001 41.7315 0.0001 78.1054 56.9965 86.5383 -30.1149 69.6400 -31.7444 0.0000 48.6928 -0.0001 -55.0845 28.3181 -38.9969 2.6088 21.0668 17.7993 1.4577 12.7091 13.0338 14.9827 -1.2389 -177.9215 -0.0117 -15.4350 0.0858 -14.4963 75.4157 -7.5165 0.0000 28.1442 0.0000 12.8531 2.1238 -177.2825 -0.0007 -0.3329 -0.0827 -9.1426 69.0022 -1.4920 0.0000 22.9659 -0.0001 
-4.6469 87.9670 0.0835 -23.4347 -0.9817 -2.3158 -0.0796 1.0795 -1.6653 -0.0796 1.0799 -1.6657 -0.0798 1.0828 -1.6703 143.3988 81.0442 53.6390 57.5289 56.3078 93.0258 21.2287 25.9011 65.2135 -34.6954 22.1015 34.5965 -15.4802 -6.8382 -15.6483 -0.2660 8.7593 -1.7462 0.0000 5.8415 -0.0008 -14.0297 -8.8241 -20.1781 1.8320 23.6592 4.5573 0.0001 15.8299 0.0000 -16.1600 -8.1833 -23.3705 -1.5803 23.1036 -4.0207 0.0000 15.4489 -0.0006 -14.8929 -8.5442 -21.7806 1.1629 23.0781 2.9646 0.0000 15.4145 -0.0002 32.1456 23.0923 37.4498 6.8952 -26.7689 -20.7028 -0.0822 -3.0673 3.0717 3.2397 7.8845 -1.0526 3.2397 7.8845 -1.0526 119.1683 79.0610 -137.4241 55.7977 60.4851 34.2815 -14.4496 -4.6349 -95.9507 -58.3360 -35.1463 -8.5547 24.5488 45.1175 49.9236 5.7864 72.7857 6.0557 -0.0001 48.9599 0.0001 46.7714 53.4275 64.8505 -131.9185 76.8433 -131.1621 -0.0001 66.7957 -0.0002 95.8086 43.8739 99.2742 -24.5057 58.7588 -28.0645 -0.0002 41.4551 0.0001 78.2183 56.9560 86.7325 -30.5875 69.3499 -32.2803 0.0000 48.5848 -0.0001 -55.0354 28.3811 -39.0370 2.6610 21.0174 17.9554 1.4659 12.7434 13.0708 14.9683 -1.2572 -177.9213 -0.0120 -15.4674 0.0849 -14.4960 75.4304 -7.5039 0.0000 28.1435 0.0000 12.8716 2.2365 -177.2824 -0.0002 -0.1007 -0.0827 -8.9965 68.8821 -1.3758 0.0000 22.9678 -0.0001 
-4.6238 87.9659 0.0834 -23.4530 -0.9900 -2.3287 -0.0826 1.0776 -1.6574 -0.0826 1.0780 -1.6579 -0.0829 1.0809 -1.6624 143.5151 81.0420 53.7693 57.4992 56.3737 93.0562 21.2333 25.9053 65.2208 -34.7433 22.0620 34.5250 -15.4807 -6.8401 -15.6481 -0.2666 8.7588 -1.7500 0.0000 5.8412 -0.0008 -14.0300 -8.8248 -20.1775 1.8313 23.6574 4.5558 0.0000 15.8287 0.0000 -16.1556 -8.1690 -23.3539 -1.5999 23.0716 -4.0757 0.0000 15.4285 -0.0006 -14.8923 -8.5441 -21.7810 1.1630 23.0774 2.9648 0.0000 15.4140 -0.0001 32.1453 23.0877 37.4511 6.8929 -26.7642 -20.7033 -0.0821 -3.0651 3.0695 3.2338 7.8866 -1.0448 3.2339 7.8866 -1.0448 119.0720 79.0946 -137.5312 55.4761 60.3877 33.9151 -14.4662 -4.5029 -95.7589 -58.1148 -35.2600 -8.6802 24.7771 44.9799 50.1505 5.4636 72.8843 5.7151 -0.0001 49.0202 0.0001 46.9387 53.2909 65.0901 -131.1917 76.6768 -130.4186 -0.0002 66.7836 -0.0002 95.8821 43.8050 99.4210 -24.7140 58.5207 -28.3540 -0.0001 41.3477 0.0001 78.2781 56.9086 86.8736 -31.1175 69.1313 -32.8641 0.0000 48.5282 -0.0001 -54.9425 28.4720 -39.0523 2.7164 20.9874 18.1229 1.4764 12.7874 13.1183 14.9683 -1.2734 -177.9231 -0.0118 -15.5071 0.0832 -14.4768 75.4454 -7.4647 0.0000 28.1545 0.0000 12.8953 2.2780 -177.2849 0.0000 -0.0163 -0.0827 -8.9093 68.8376 -1.3084 0.0000 22.9687 -0.0001 
-4.6023 87.9645 0.0883 -23.4903 -0.9984 -2.3360 -0.0791 1.0721 -1.6543 -0.0791 1.0724 -1.6548 -0.0794 1.0753 -1.6592 143.7150 81.0297 53.9870 57.4612 56.3657 93.0920 21.1848 25.9146 65.2243 -34.7891 21.9927 34.4527 -15.4784 -6.8330 -15.6467 -0.2673 8.7602 -1.7544 0.0000 5.8421 -0.0008 -14.0521 -8.8101 -20.1755 1.8313 23.5855 4.5688 0.0001 15.7808 0.0001 -16.2066 -8.1372 -23.4829 -1.4393 22.9559 -3.6849 0.0000 15.3447 -0.0006 -14.9030 -8.5234 -21.7689 1.1393 22.9962 2.9142 0.0000 15.3591 -0.0001 32.1616 23.1541 37.4601 6.9242 -26.8243 -20.7121 -0.0834 -3.0889 3.0934 3.2156 7.8887 -1.0402 3.2156 7.8887 -1.0402 119.0502 79.1240 -137.5719 55.0365 60.3949 33.5296 -14.4408 -4.4300 -95.5689 -57.9355 -35.3998 -8.9400 24.9893 44.8335 50.3738 5.0154 72.9821 5.2438 -0.0001 49.0781 0.0001 47.1341 53.1463 65.3557 -130.5990 76.4906 -129.8066 -0.0001 66.7940 -0.0002 95.9569 43.7678 99.5666 -24.9116 58.3119 -28.6253 -0.0002 41.2568 0.0001 78.3321 56.9021 86.9889 -31.5065 68.9060 -33.3042 0.0000 48.4513 -0.0001 -54.8069 28.5951 -39.0572 2.7657 20.9883 18.2745 1.4880 12.8360 13.1708 14.9846 -1.2779 -177.9313 -0.0122 -15.5355 0.0829 -14.4712 75.4645 -7.4302 0.0000 28.1509 0.0000 12.9401 2.2206 -177.2919 -0.0003 -0.1340 -0.0827 -8.8821 68.8938 -1.3077 0.0000 22.9701 -0.0001 
-4.5830 87.9630 0.0981 -23.5319 -1.0027 -2.3463 -0.0709 1.0636 -1.6500 -0.0709 1.0640 -1.6505 -0.0711 1.0669 -1.6550 143.9672 81.0200 54.2531 57.4848 56.3678 93.1524 21.1772 25.9204 65.2695 -34.8069 21.8913 34.3728 -15.4761 -6.8265 -15.6462 -0.2673 8.7620 -1.7542 0.0000 5.8433 -0.0008 -14.0762 -8.7983 -20.1714 1.8273 23.5178 4.5713 0.0001 15.7355 0.0001 -16.2479 -8.1160 -23.5376 -1.3667 22.8704 -3.5119 0.0000 15.2848 -0.0006 -14.9112 -8.5071 -21.7601 1.1224 22.9332 2.8784 0.0000 15.3166 -0.0002 32.1739 23.2068 37.4664 6.9491 -26.8721 -20.7180 -0.0844 -3.1082 3.1127 3.1992 7.8876 -1.0520 3.1992 7.8876 -1.0520 119.0483 79.1354 -137.5881 54.7850 60.4834 33.3851 -14.3399 -4.4642 -95.4252 -58.1194 -35.5440 -9.0902 25.1322 44.7568 50.5430 4.4615 72.9755 4.6651 -0.0001 49.0640 0.0001 47.2361 53.0916 65.5224 -129.7626 76.3683 -128.9600 -0.0001 66.7423 -0.0002 96.0884 43.7422 99.7375 -24.8951 57.9945 -28.6901 -0.0001 41.0652 0.0001 78.4574 56.9239 87.1403 -31.3281 68.6161 -33.1720 0.0000 48.2618 -0.0001 -54.6961 28.7021 -39.0494 2.8055 20.9446 18.3923 1.4938 12.8600 13.1967 14.9983 -1.2861 -177.9365 -0.0125 -15.5695 0.0811 -14.4621 75.4830 -7.3871 0.0000 28.1616 0.0000 12.9554 2.1613 -177.2971 -0.0006 -0.2561 -0.0828 -8.8954 68.9564 -1.3062 0.0000 22.9706 -0.0001 
